<?xml version="1.0" encoding="utf-8"?>
<!-- Generator: Adobe Illustrator 17.0.0, SVG Export Plug-In . SVG Version: 6.00 Build 0)  -->
<!DOCTYPE svg PUBLIC "-//W3C//DTD SVG 1.1//EN" "http://www.w3.org/Graphics/SVG/1.1/DTD/svg11.dtd">
<svg version="1.1" id="圖層_1" xmlns="http://www.w3.org/2000/svg" xmlns:xlink="http://www.w3.org/1999/xlink" x="0px" y="0px"
	 width="197.856px" height="34.844px" viewBox="0 0 197.856 34.844" enable-background="new 0 0 197.856 34.844"
	 xml:space="preserve">
<g>
	<g>
		<path d="M124.304,8.075V4.79l1.732,0.215c0.179,0.035,0.286,0.106,0.286,0.214c0,0.142-0.143,0.304-0.411,0.482v2.374h2.018V9.61
			h-2.018v3.428c0.75-0.25,1.5-0.535,2.232-0.839v1.518l-2.232,0.839v4.534c0,0.715-0.196,1.232-0.571,1.571
			c-0.321,0.34-1.107,0.518-2.356,0.518l-0.625-1.589h1.232c0.428,0,0.678-0.25,0.714-0.768v-3.659l-1.535,0.589
			c-0.179,0.375-0.339,0.554-0.482,0.554c-0.107,0-0.196-0.09-0.268-0.304l-0.571-1.571c0.964-0.25,1.911-0.518,2.856-0.839V9.61
			h-2.517V8.075H124.304z M132.105,7.932V6.129c0-0.356-0.018-0.768-0.053-1.268l1.714,0.144c0.286,0.018,0.446,0.089,0.446,0.214
			c0,0.179-0.179,0.339-0.5,0.482v2.231h3.356v1.464h-3.356v0.839c0,0.856-0.054,1.642-0.125,2.374h4.392v1.464h-4.035
			c0.589,1.5,1.178,2.66,1.785,3.446c0.571,0.821,1.357,1.66,2.375,2.482l-1.464,1.249c-0.857-0.82-1.571-1.714-2.106-2.713
			c-0.5-0.821-1-1.893-1.482-3.196c-0.018,0.072-0.036,0.125-0.036,0.161c-0.375,1.178-1.053,2.303-2.018,3.41
			c-0.714,0.821-1.553,1.589-2.517,2.267l-1.393-1.249c1-0.643,1.768-1.268,2.339-1.857c0.874-0.91,1.499-1.82,1.856-2.732
			c0.143-0.392,0.286-0.821,0.393-1.267h-3.267v-1.464h3.535c0.107-0.749,0.161-1.535,0.161-2.374V9.396h-2.928V7.932H132.105z"/>
		<path d="M153.654,6.736c-0.946,0.25-1.982,0.429-3.088,0.571v2.714h5.713v1.464h-5.713v2.445h6.838v1.464h-6.838v3.981
			c0,0.643-0.25,1.106-0.714,1.41c-0.393,0.304-1.392,0.464-2.981,0.464l-0.696-1.66h1.731c0.607,0,0.929-0.178,0.982-0.5v-3.695
			h-7.391V13.93h7.391v-2.445h-5.999v-1.464h5.999V7.504c-1.66,0.16-3.481,0.232-5.48,0.232l-1-1.536h2.232
			c3.535,0,6.767-0.446,9.694-1.339l1.339,1.411c0.071,0.053,0.125,0.16,0.125,0.339c0,0.054-0.054,0.071-0.143,0.071
			c-0.143,0-0.286-0.017-0.393-0.089c-0.214-0.036-0.375-0.054-0.446-0.054C154.565,6.54,154.19,6.611,153.654,6.736z"/>
		<path d="M163.225,9.253v-4.32l1.464,0.125c0.286,0.036,0.429,0.108,0.429,0.233c0,0.089-0.108,0.232-0.286,0.411v3.552h2.035
			v1.483h-2.035v4.909c0.696-0.214,1.393-0.446,2.089-0.731v1.464c-1.036,0.464-2.696,1.089-4.945,1.874
			c-0.125,0.25-0.232,0.357-0.339,0.357c-0.143,0-0.214-0.09-0.232-0.286l-0.411-1.732c0.75-0.125,1.5-0.285,2.231-0.482v-5.373
			h-2.089V9.253H163.225z M175.507,8.557c0.071,0,0.161,0.053,0.268,0.16l0.732,0.571c0.107,0.071,0.178,0.161,0.178,0.25
			c0,0.125-0.089,0.268-0.268,0.429l-0.089,3.803c0,1.018-0.214,1.732-0.607,2.16c-0.321,0.285-0.946,0.535-1.893,0.731
			l-0.625-1.606c0.821-0.036,1.303-0.161,1.446-0.375c0.143-0.214,0.232-0.589,0.232-1.125l0.053-2.981l-2.142,0.679v5.409h-1.464
			v-4.945l-1.964,0.625v5.428c0,0.464,0.071,0.803,0.232,1.035c0.143,0.196,0.464,0.285,0.964,0.285h3.41
			c0.536,0,0.946-0.089,1.232-0.303c0.286-0.179,0.535-0.75,0.714-1.714l1.464,0.625c-0.286,1.249-0.643,2.017-1.053,2.374
			c-0.357,0.321-0.803,0.482-1.303,0.482h-5.106c-0.696,0-1.232-0.215-1.589-0.644c-0.339-0.41-0.5-0.981-0.5-1.731v-5.338
			l-1.464,0.464l-0.339-1.393l1.803-0.571V6.611l1.768,0.233c0.214,0.035,0.321,0.106,0.321,0.249c0,0.144-0.107,0.304-0.303,0.482
			c-0.179,0.125-0.25,0.321-0.25,0.571v2.714l1.964-0.608V4.861l1.356,0.108c0.25,0.017,0.375,0.071,0.375,0.179
			c0,0.089-0.089,0.231-0.268,0.41v4.232l2.106-0.66C175.186,8.754,175.4,8.557,175.507,8.557z"/>
		<path d="M183.506,8.289V4.79l1.411,0.125c0.25,0.036,0.393,0.107,0.393,0.232c0,0.071-0.107,0.196-0.286,0.356v2.785h2.107v1.464
			h-2.107v0.536c0.679,1.499,1.482,2.749,2.446,3.713l-1.035,1.125c-0.518-0.714-0.982-1.482-1.411-2.339v7.569h-1.518v-7.319
			c-0.053,0.143-0.107,0.286-0.143,0.429c-0.429,1.285-0.928,2.464-1.464,3.535l-1.536-1.054c0.696-0.946,1.303-1.981,1.839-3.089
			c0.322-0.696,0.732-1.732,1.196-3.107h-2.624V8.289H183.506z M189.629,9.61h5.356c0.25-0.179,0.393-0.285,0.446-0.285
			c0.107,0,0.232,0.071,0.357,0.178l0.857,0.821c0.107,0.108,0.179,0.215,0.179,0.34c0,0.106-0.196,0.25-0.571,0.41
			c-0.625,2.785-1.321,4.803-2.071,6.088c0.749,0.857,1.731,1.714,2.91,2.553l-1.249,1.339c-1.053-0.856-1.928-1.678-2.642-2.535
			c-0.893,1.017-2.035,1.857-3.428,2.535l-1.107-1.464c0.946-0.339,1.714-0.731,2.303-1.16c0.482-0.357,0.91-0.75,1.268-1.196
			c-0.214-0.304-0.393-0.606-0.536-0.91c-0.696-1.25-1.196-2.999-1.482-5.249h-0.625c-0.071,1.643-0.232,3.16-0.517,4.517
			c-0.268,1.339-0.803,3.018-1.607,5.035l-1.535-0.768c0.767-1.75,1.303-3.285,1.589-4.643c0.375-1.928,0.571-3.82,0.571-5.677
			V5.701h7.677v1.535h-6.142V9.61z M193.021,15.555c0.036,0.071,0.089,0.143,0.125,0.214c0-0.017,0.018-0.035,0.018-0.035
			c0.5-1,0.964-2.554,1.393-4.66h-2.946C191.861,12.966,192.343,14.466,193.021,15.555z"/>
	</g>
	<rect x="40.729" y="25.183" fill="#F6AB00" width="157.126" height="9.661"/>
	<g>
		<g>
			<path fill="#FFFFFF" d="M46.427,26.579c0.044,0.037,0.073,0.067,0.073,0.09c0,0.059-0.051,0.089-0.146,0.089
				c-0.081,0-0.139,0.029-0.183,0.081c-0.029,0.059-0.058,0.104-0.087,0.148h2.808c0.029,0,0.065,0.015,0.109,0.045l0.124,0.155
				c0.029,0.052,0.051,0.103,0.051,0.148c-0.525,0.749-1.064,1.342-1.634,1.78c-0.014,0.015-0.021,0.015-0.021,0.015
				c0.015,0.015,0.021,0.021,0.036,0.021c0.481,0.297,1.036,0.52,1.648,0.668c0.307,0.089,0.591,0.155,0.861,0.186
				c0.087,0.029,0.139,0.044,0.139,0.052c0,0.06-0.022,0.097-0.051,0.111c-0.087,0.111-0.16,0.207-0.226,0.289
				c-0.029,0.045-0.058,0.066-0.095,0.066c-0.059,0-0.263-0.044-0.598-0.133c-0.875-0.26-1.568-0.549-2.079-0.868
				c-0.044-0.022-0.073-0.044-0.095-0.066c-0.357,0.229-0.729,0.407-1.116,0.541c-0.547,0.193-1.167,0.371-1.867,0.526
				c-0.058,0-0.102-0.029-0.131-0.096c-0.058-0.119-0.109-0.208-0.153-0.268c-0.044-0.044-0.059-0.074-0.059-0.103
				c0-0.037,0.037-0.066,0.117-0.097c1.014-0.148,1.758-0.334,2.239-0.571c0.175-0.081,0.35-0.17,0.511-0.259
				c-0.19-0.149-0.357-0.312-0.518-0.483c-0.204-0.237-0.401-0.526-0.583-0.852c-0.066,0.074-0.131,0.148-0.189,0.207
				c-0.161,0.164-0.321,0.312-0.481,0.445c-0.161,0.134-0.285,0.223-0.379,0.282c-0.051,0-0.087-0.022-0.109-0.067
				c-0.066-0.104-0.139-0.192-0.219-0.267c-0.051-0.029-0.073-0.052-0.073-0.074c0-0.008,0.007-0.015,0.029-0.029
				c0.219-0.119,0.401-0.23,0.547-0.349c0.204-0.148,0.408-0.349,0.612-0.594c0.131-0.155,0.241-0.304,0.328-0.452
				c0.095-0.155,0.183-0.326,0.263-0.512c0.022-0.037,0.044-0.059,0.073-0.059L46.427,26.579z M48.805,30.354
				c0.073,0,0.117,0.029,0.117,0.081v2.551c0,0.06-0.044,0.09-0.117,0.09h-0.285c-0.073,0-0.109-0.03-0.109-0.09v-0.259H45.53v0.289
				c0,0.06-0.044,0.089-0.117,0.089h-0.285c-0.073,0-0.109-0.029-0.109-0.089v-2.551c0-0.074,0.037-0.111,0.109-0.111H48.805z
				 M48.411,32.259v-1.446H45.53v1.446H48.411z M46.5,28.344c0.161,0.178,0.343,0.341,0.555,0.489
				c0.182-0.126,0.35-0.26,0.503-0.408c0.255-0.23,0.547-0.556,0.883-0.971h-2.553C46.063,27.796,46.267,28.092,46.5,28.344z"/>
			<path fill="#FFFFFF" d="M54.684,27.802c-0.029-0.4-0.037-0.822-0.037-1.275c0-0.096,0.029-0.149,0.088-0.149l0.481,0.03
				c0.073,0.015,0.117,0.044,0.117,0.089c0,0.074-0.029,0.111-0.08,0.111c-0.058,0.029-0.087,0.089-0.087,0.178
				c0,0.356,0.007,0.697,0.029,1.016h2.56c0.058,0,0.087,0.037,0.087,0.111v0.237c0,0.074-0.029,0.111-0.087,0.111h-2.531
				c0.015,0.186,0.029,0.363,0.051,0.534c0.073,0.615,0.204,1.172,0.387,1.661c0.16,0.467,0.35,0.86,0.569,1.172
				c0.175,0.297,0.35,0.512,0.525,0.66c0.117,0.059,0.19,0.089,0.233,0.089c0.037,0,0.081-0.037,0.131-0.111
				c0.059-0.082,0.183-0.378,0.357-0.89c0.029-0.082,0.051-0.126,0.08-0.126c0.029,0,0.044,0.015,0.059,0.044
				c0.051,0.089,0.117,0.171,0.204,0.237c0.029,0.052,0.051,0.104,0.051,0.149c-0.205,0.512-0.372,0.883-0.503,1.12
				c-0.131,0.163-0.248,0.244-0.35,0.244c-0.168,0-0.394-0.141-0.685-0.407c-0.248-0.237-0.496-0.579-0.744-1.024
				c-0.211-0.371-0.401-0.875-0.569-1.528c-0.153-0.556-0.255-1.149-0.299-1.779v-0.045h-3.319c-0.058,0-0.087-0.037-0.087-0.111
				v-0.237c0-0.074,0.029-0.111,0.087-0.111H54.684z M54.305,29.397c0.059,0,0.088,0.037,0.088,0.111v0.237
				c0,0.074-0.029,0.111-0.088,0.111h-1.05v1.979c0.423-0.096,0.824-0.2,1.204-0.311c0.015-0.007,0.029-0.015,0.051-0.015
				c0.037,0,0.059,0.022,0.059,0.059c0,0.245-0.015,0.378-0.029,0.4c-0.875,0.237-1.765,0.445-2.655,0.638
				c-0.073,0.134-0.124,0.208-0.168,0.208c-0.043,0-0.138-0.208-0.284-0.608c0.365-0.052,0.802-0.134,1.313-0.252v-2.099h-1.116
				c-0.058,0-0.08-0.037-0.08-0.111v-0.237c0-0.074,0.022-0.111,0.08-0.111H54.305z M56.953,26.898
				c0.211,0.149,0.394,0.289,0.547,0.408c0,0.015-0.015,0.037-0.037,0.066c-0.16,0.229-0.248,0.341-0.248,0.341
				c-0.233-0.2-0.474-0.386-0.729-0.556c-0.212-0.134-0.387-0.223-0.525-0.282c0-0.029,0.073-0.133,0.226-0.326
				c0.022-0.029,0.044-0.052,0.059-0.052C56.529,26.646,56.763,26.779,56.953,26.898z"/>
			<path fill="#FFFFFF" d="M60.067,27.914v-1.067c0-0.141-0.015-0.252-0.029-0.326c-0.022-0.052-0.029-0.097-0.029-0.142
				c0-0.029,0.044-0.052,0.139-0.052l0.576,0.074c0.051,0.03,0.08,0.052,0.08,0.067c0,0.044-0.029,0.066-0.08,0.066
				c-0.102,0.044-0.146,0.155-0.146,0.341v1.038h0.744c0.051,0,0.08,0.045,0.08,0.119v0.229c0,0.082-0.029,0.119-0.08,0.119h-0.744
				v1.52c0.263-0.141,0.518-0.289,0.759-0.452c0.007-0.015,0.021-0.022,0.036-0.022c0.037,0,0.059,0.022,0.059,0.053
				c0,0.252-0.015,0.385-0.029,0.407c-0.277,0.179-0.554,0.349-0.824,0.505v2.105c0,0.342-0.255,0.52-0.766,0.52h-0.314
				c-0.043,0-0.065-0.045-0.065-0.126c-0.022-0.097-0.065-0.208-0.139-0.342c0-0.037,0.015-0.052,0.059-0.052
				c0.146,0.03,0.277,0.052,0.401,0.052c0.204,0,0.314-0.089,0.314-0.259v-1.603c-0.241,0.134-0.481,0.268-0.715,0.386
				c-0.073,0.142-0.124,0.208-0.168,0.208c-0.051,0-0.146-0.2-0.284-0.608c0.313-0.104,0.7-0.267,1.16-0.504h0.007v-1.787h-0.883
				c-0.058,0-0.087-0.037-0.087-0.119v-0.229c0-0.074,0.029-0.119,0.087-0.119H60.067z M63.283,27.714v-1.245
				c0-0.06,0.007-0.09,0.029-0.09l0.51,0.045c0.073,0.022,0.117,0.045,0.117,0.074c0,0.044-0.021,0.074-0.065,0.089
				c-0.059,0.029-0.08,0.074-0.08,0.141v0.986h1.371c0.058,0,0.087,0.045,0.087,0.119v0.229c0,0.082-0.029,0.119-0.087,0.119h-1.371
				v0.927c0,0.252-0.007,0.475-0.022,0.66h1.648c0.058,0,0.087,0.044,0.087,0.118v0.23c0,0.081-0.029,0.118-0.087,0.118h-1.561
				c0.073,0.267,0.146,0.489,0.219,0.652c0.087,0.253,0.211,0.497,0.365,0.728c0.161,0.267,0.343,0.475,0.547,0.622
				c0.146,0.134,0.329,0.23,0.547,0.319c0.036,0,0.058,0.022,0.058,0.082c0,0.029-0.022,0.059-0.051,0.104
				c-0.066,0.089-0.124,0.178-0.183,0.267c-0.015,0.045-0.037,0.067-0.08,0.067c-0.299-0.171-0.525-0.334-0.678-0.497
				c-0.175-0.163-0.321-0.326-0.445-0.512c-0.146-0.208-0.269-0.445-0.364-0.697c-0.059-0.134-0.124-0.312-0.197-0.549
				c-0.051,0.163-0.109,0.319-0.182,0.452c-0.131,0.268-0.313,0.542-0.547,0.809c-0.292,0.334-0.627,0.594-1,0.801
				c-0.248,0.126-0.408,0.193-0.496,0.193c-0.036,0-0.065-0.03-0.08-0.074c-0.066-0.134-0.131-0.245-0.204-0.349
				c-0.037-0.022-0.051-0.037-0.051-0.045c0-0.044,0.007-0.06,0.029-0.06c0.313-0.074,0.569-0.163,0.773-0.296
				c0.255-0.148,0.474-0.334,0.65-0.549c0.197-0.193,0.357-0.431,0.481-0.712c0.117-0.215,0.182-0.46,0.211-0.727
				c0-0.016,0.007-0.022,0.007-0.03h-1.415c-0.059,0-0.087-0.037-0.087-0.118v-0.23c0-0.074,0.029-0.118,0.087-0.118h1.48
				c0.015-0.2,0.029-0.423,0.029-0.66v-0.927h-1.335c-0.058,0-0.087-0.037-0.087-0.119v-0.229c0-0.074,0.029-0.119,0.087-0.119
				H63.283z"/>
			<path fill="#FFFFFF" d="M70.234,27.336V28.5h2.312c0.059,0,0.088,0.03,0.088,0.082v0.289c0,0.081-0.029,0.118-0.088,0.118h-2.312
				v1.157h2.852c0.058,0,0.087,0.029,0.087,0.089v0.289c0,0.082-0.029,0.119-0.087,0.119h-2.852v1.854
				c0,0.386-0.313,0.579-0.934,0.579h-0.627c-0.044,0-0.066-0.053-0.066-0.149c-0.015-0.119-0.058-0.252-0.139-0.4
				c0-0.022,0.007-0.03,0.029-0.03c0.263,0.03,0.525,0.052,0.773,0.052c0.277,0,0.423-0.096,0.423-0.289v-1.616h-2.932
				c-0.059,0-0.087-0.037-0.087-0.119v-0.289c0-0.06,0.029-0.089,0.087-0.089h2.932v-1.157h-2.363c-0.058,0-0.087-0.037-0.087-0.118
				v-0.289c0-0.052,0.029-0.082,0.087-0.082h2.363v-1.09c-0.678,0.089-1.372,0.134-2.079,0.134c-0.073,0-0.117-0.03-0.131-0.104
				c-0.066-0.126-0.124-0.229-0.183-0.304c0-0.074,0.029-0.119,0.087-0.119c1.094,0,1.882-0.029,2.356-0.104
				c0.744-0.066,1.393-0.229,1.948-0.489c0.058-0.029,0.124-0.045,0.197-0.045c0.029,0,0.065,0.023,0.109,0.06
				c0.211,0.237,0.321,0.363,0.321,0.378c0,0.082-0.022,0.119-0.058,0.119l-0.226-0.029C71.555,27.084,70.949,27.232,70.234,27.336z
				"/>
			<path fill="#FFFFFF" d="M77.181,32.416v-4.998h0.452v4.998H77.181z"/>
			<path fill="#FFFFFF" d="M82.568,27.833v-1.364c0-0.06,0.036-0.09,0.117-0.09c0.357,0,0.54,0.03,0.54,0.09
				c0,0.066-0.029,0.104-0.073,0.11c-0.051,0.008-0.073,0.06-0.073,0.149v1.105h0.831c0.051,0,0.08,0.037,0.08,0.111v0.237
				c0,0.074-0.029,0.111-0.08,0.111h-0.751c0.131,0.4,0.248,0.675,0.336,0.83c0.124,0.267,0.284,0.512,0.474,0.734
				c0,0.06-0.022,0.097-0.051,0.111c-0.073,0.066-0.175,0.155-0.292,0.267c-0.014,0-0.021-0.007-0.036-0.029
				c-0.102-0.126-0.197-0.289-0.292-0.497c-0.073-0.148-0.146-0.341-0.219-0.563v3.841c0,0.06-0.036,0.09-0.109,0.09h-0.284
				c-0.081,0-0.117-0.03-0.117-0.09v-3.381c-0.081,0.185-0.161,0.355-0.233,0.504c-0.131,0.267-0.277,0.512-0.453,0.734
				c-0.051,0-0.087-0.008-0.117-0.037c-0.102-0.052-0.204-0.104-0.306-0.156c-0.044,0-0.058-0.007-0.058-0.037
				c0.226-0.281,0.408-0.564,0.554-0.838c0.139-0.259,0.248-0.512,0.328-0.756c0.059-0.156,0.131-0.4,0.211-0.726h-0.81
				c-0.058,0-0.087-0.037-0.087-0.111v-0.237c0-0.074,0.029-0.111,0.087-0.111H82.568z M87.673,26.535
				c0.073,0.029,0.109,0.066,0.109,0.111c0,0.037-0.029,0.06-0.08,0.074c-0.073,0-0.117,0.029-0.131,0.081
				c-0.139,0.289-0.27,0.526-0.401,0.712h0.642c0.073,0,0.109,0.03,0.109,0.082v1.535c0,0.081-0.037,0.118-0.109,0.118H86.36v0.838
				h1.678c0.058,0,0.087,0.045,0.087,0.119c-0.015,0.586-0.044,1.001-0.087,1.253c-0.059,0.312-0.139,0.534-0.233,0.683
				c-0.095,0.163-0.343,0.237-0.737,0.237c-0.197,0-0.299-0.045-0.306-0.142c-0.015-0.104-0.059-0.229-0.117-0.378v-0.06
				c0.146,0.023,0.292,0.03,0.423,0.03c0.182,0,0.299-0.052,0.357-0.156c0.058-0.074,0.109-0.229,0.153-0.467
				c0.029-0.148,0.051-0.363,0.065-0.652H86.36v2.432c0,0.06-0.044,0.09-0.117,0.09h-0.285c-0.08,0-0.116-0.03-0.116-0.09v-1.942
				c-0.124,0.186-0.233,0.341-0.329,0.46c-0.189,0.237-0.386,0.46-0.605,0.66c-0.248,0.222-0.496,0.407-0.744,0.563
				c-0.059,0-0.102-0.022-0.131-0.052c-0.095-0.09-0.189-0.179-0.277-0.253c-0.014-0.029-0.021-0.059-0.021-0.074
				c0.233-0.126,0.43-0.244,0.584-0.363c0.219-0.155,0.452-0.37,0.693-0.652c0.138-0.155,0.328-0.415,0.569-0.778h-0.941
				c-0.029,0.118-0.051,0.229-0.081,0.333c-0.014,0.053-0.021,0.074-0.021,0.074c-0.044,0-0.088-0.007-0.124-0.021
				c-0.109-0.016-0.219-0.045-0.336-0.074c-0.044-0.008-0.059-0.022-0.059-0.053c0.073-0.237,0.117-0.415,0.139-0.533
				c0.058-0.208,0.102-0.445,0.146-0.705c0.043-0.267,0.073-0.556,0.095-0.852c0-0.052,0.015-0.081,0.051-0.081
				c0.212,0.096,0.343,0.155,0.394,0.178h1v-0.875h-1.481c-0.044,0-0.058-0.037-0.058-0.111v-0.237c0-0.052,0.015-0.082,0.058-0.082
				h2.137c0.16-0.186,0.291-0.349,0.379-0.489c0.131-0.192,0.226-0.393,0.292-0.586c0.015-0.06,0.044-0.089,0.073-0.089
				L87.673,26.535z M85.843,29.249h-1c-0.029,0.297-0.065,0.564-0.109,0.801c-0.007,0.016-0.007,0.03-0.007,0.037h1.116V29.249z
				 M85.135,26.409c0.226,0.252,0.438,0.512,0.627,0.786c0,0.074-0.022,0.111-0.051,0.111c-0.175,0.118-0.307,0.178-0.409,0.178
				c-0.204-0.349-0.394-0.638-0.569-0.868c0-0.052,0.102-0.133,0.313-0.237C85.091,26.379,85.121,26.394,85.135,26.409z
				 M86.36,28.819h1.05v-0.875h-1.05V28.819z"/>
			<path fill="#FFFFFF" d="M90.518,27.773v-1.424c0-0.052,0.037-0.081,0.117-0.081c0.357,0,0.54,0.029,0.54,0.081
				c0,0.074-0.029,0.111-0.073,0.111c-0.051,0.015-0.073,0.066-0.073,0.155v1.157h0.89c0.051,0,0.08,0.045,0.08,0.119v0.229
				c0,0.074-0.029,0.111-0.08,0.111h-0.824c0.109,0.297,0.211,0.534,0.314,0.704c0.131,0.252,0.35,0.534,0.656,0.846
				c0.029,0.023,0.051,0.045,0.051,0.074c0,0.015-0.021,0.037-0.051,0.06c-0.059,0.074-0.124,0.155-0.211,0.229
				c-0.037,0.045-0.066,0.06-0.081,0.06c-0.029,0-0.058-0.015-0.095-0.045c-0.219-0.237-0.401-0.512-0.554-0.815
				c-0.037-0.06-0.066-0.126-0.095-0.193v3.834c0,0.06-0.037,0.09-0.109,0.09h-0.285c-0.08,0-0.117-0.03-0.117-0.09v-3.448
				c-0.117,0.305-0.248,0.586-0.379,0.838c-0.153,0.297-0.328,0.579-0.532,0.846c-0.059,0-0.102-0.015-0.124-0.044
				c-0.109-0.045-0.219-0.097-0.321-0.156c-0.044,0-0.066-0.007-0.066-0.037c0.27-0.326,0.489-0.652,0.664-0.979
				c0.16-0.297,0.292-0.594,0.394-0.883c0.073-0.186,0.153-0.482,0.255-0.89H89.38c-0.059,0-0.087-0.037-0.087-0.111v-0.229
				c0-0.074,0.029-0.119,0.087-0.119H90.518z M92.881,28.351h2.451c0.044,0,0.087,0.016,0.131,0.045
				c0.08,0.074,0.124,0.126,0.124,0.155c-0.059,0.475-0.124,0.868-0.19,1.165c-0.08,0.333-0.182,0.659-0.306,0.971
				c-0.08,0.2-0.19,0.431-0.321,0.69c-0.044,0.074-0.081,0.133-0.117,0.185c0.138,0.2,0.299,0.379,0.489,0.527
				c0.204,0.192,0.467,0.363,0.788,0.512c0.036,0.021,0.058,0.044,0.058,0.066c0,0.029-0.015,0.052-0.036,0.081
				c-0.088,0.074-0.168,0.156-0.255,0.26c-0.037,0.045-0.066,0.067-0.081,0.067c-0.014,0-0.051-0.03-0.102-0.074
				c-0.16-0.089-0.328-0.208-0.518-0.342c-0.219-0.186-0.423-0.386-0.613-0.615c-0.015-0.015-0.022-0.029-0.029-0.045
				c-0.029,0.037-0.051,0.067-0.066,0.082c-0.139,0.171-0.313,0.334-0.533,0.512c-0.167,0.141-0.408,0.304-0.729,0.482
				c-0.044,0-0.088-0.03-0.117-0.074c-0.095-0.074-0.197-0.149-0.299-0.216c-0.029-0.029-0.043-0.052-0.043-0.059
				c0-0.03,0.014-0.045,0.043-0.052c0.336-0.148,0.613-0.305,0.832-0.482c0.233-0.171,0.43-0.371,0.605-0.594
				c0.007-0.007,0.015-0.015,0.022-0.029c-0.073-0.118-0.139-0.237-0.19-0.355c-0.167-0.319-0.284-0.653-0.357-1.002
				c-0.109-0.356-0.204-0.815-0.291-1.394h-0.35v0.46c0,0.778-0.051,1.394-0.146,1.854c-0.065,0.386-0.189,0.764-0.372,1.135
				c-0.102,0.229-0.241,0.452-0.423,0.66c-0.029,0-0.059-0.008-0.073-0.015c-0.081-0.074-0.168-0.142-0.263-0.201
				c-0.022-0.029-0.029-0.059-0.029-0.104c0.161-0.192,0.299-0.452,0.43-0.778c0.131-0.349,0.219-0.712,0.277-1.098
				c0.059-0.393,0.087-0.875,0.087-1.453v-2.433c0-0.074,0.037-0.119,0.117-0.119h3.217c0.058,0,0.087,0.045,0.087,0.119v0.229
				c0,0.082-0.029,0.119-0.087,0.119h-2.823V28.351z M93.858,29.664c0.088,0.386,0.197,0.742,0.329,1.054
				c0.058,0.148,0.124,0.289,0.197,0.407c0.051-0.089,0.095-0.17,0.131-0.244c0.131-0.282,0.241-0.578,0.343-0.89
				c0.073-0.297,0.153-0.683,0.233-1.172h-1.378C93.756,29.145,93.8,29.426,93.858,29.664z"/>
			<path fill="#FFFFFF" d="M99.798,32.416v-4.998h0.452v4.998H99.798z"/>
			<path fill="#FFFFFF" d="M105.864,26.498c0.043,0.037,0.065,0.066,0.065,0.089c0,0.06-0.044,0.082-0.117,0.082
				c-0.058,0-0.102,0.021-0.124,0.066c0.197,0.312,0.365,0.534,0.496,0.667c0.19,0.223,0.43,0.423,0.708,0.601
				c0,0.053-0.015,0.09-0.044,0.104c-0.073,0.06-0.16,0.141-0.262,0.244c-0.015,0-0.037-0.007-0.051-0.021
				c-0.168-0.104-0.328-0.237-0.481-0.408c-0.175-0.2-0.372-0.46-0.576-0.786c-0.058,0.097-0.102,0.178-0.146,0.245
				c-0.08,0.147-0.182,0.296-0.299,0.444s-0.241,0.289-0.357,0.415c-0.117,0.119-0.211,0.208-0.285,0.26
				c-0.043,0-0.08-0.022-0.102-0.066c-0.058-0.089-0.131-0.171-0.204-0.245c-0.044-0.021-0.066-0.044-0.066-0.066
				c0-0.008,0.007-0.015,0.022-0.029c0.161-0.104,0.299-0.216,0.409-0.319c0.146-0.141,0.291-0.326,0.445-0.549
				c0.102-0.148,0.183-0.289,0.248-0.423c0.065-0.141,0.131-0.296,0.189-0.475c0.022-0.037,0.037-0.059,0.051-0.059L105.864,26.498z
				 M106.323,28.47c0.036,0,0.058,0.029,0.058,0.081v0.237c0,0.074-0.022,0.111-0.058,0.111h-0.627v0.868h0.773
				c0.036,0,0.058,0.029,0.058,0.089v0.229c0,0.082-0.022,0.119-0.058,0.119h-0.773v1.928c0.255-0.06,0.503-0.118,0.737-0.178
				c0.007-0.008,0.022-0.015,0.037-0.015c0.036,0,0.058,0.029,0.058,0.089c0,0.229-0.015,0.355-0.029,0.378
				c-0.642,0.148-1.284,0.282-1.94,0.408c-0.073,0.133-0.124,0.2-0.168,0.2c-0.043,0-0.131-0.193-0.255-0.578
				c0.299-0.045,0.656-0.111,1.079-0.201v-2.031h-0.882c-0.044,0-0.059-0.037-0.059-0.119v-0.229c0-0.059,0.015-0.089,0.059-0.089
				h0.882V28.9h-0.627c-0.044,0-0.059-0.037-0.059-0.111v-0.237c0-0.052,0.015-0.081,0.059-0.081H106.323z M104.915,31.229
				c0.058,0.17,0.109,0.349,0.153,0.541c0,0.015-0.146,0.066-0.423,0.141c-0.022-0.118-0.058-0.267-0.109-0.452
				c-0.058-0.207-0.139-0.408-0.233-0.615c0-0.03,0.124-0.104,0.372-0.23C104.77,30.836,104.85,31.044,104.915,31.229z
				 M106.557,30.755c0.051,0.029,0.08,0.059,0.08,0.089c0,0.029-0.015,0.044-0.037,0.052c-0.036,0-0.058,0.022-0.066,0.06
				c-0.095,0.297-0.182,0.518-0.27,0.675c-0.029,0.037-0.043,0.052-0.051,0.052c-0.029,0-0.066-0.008-0.102-0.037
				c-0.081-0.037-0.153-0.074-0.226-0.111c-0.029-0.008-0.044-0.015-0.044-0.022c0-0.007,0-0.021,0.015-0.044
				c0.08-0.134,0.139-0.26,0.182-0.371c0.059-0.141,0.109-0.282,0.139-0.423c0.007-0.037,0.022-0.06,0.037-0.06L106.557,30.755z
				 M108.22,26.876c-0.081,0.045-0.168,0.074-0.255,0.104c-0.117,0.044-0.233,0.081-0.357,0.11c-0.051,0.016-0.109,0.023-0.168,0.03
				v0.972h0.766c0.058,0,0.087,0.037,0.087,0.11v0.237c0,0.074-0.029,0.111-0.087,0.111h-0.766v1.017h0.766
				c0.058,0,0.087,0.044,0.087,0.118v0.231c0,0.081-0.029,0.118-0.087,0.118h-0.766v1.135c0.357-0.074,0.7-0.163,1.021-0.26
				c0.007,0,0.015-0.007,0.029-0.007c0.037,0,0.059,0.029,0.059,0.081c0,0.237-0.015,0.363-0.029,0.378
				c-0.365,0.097-0.722,0.186-1.08,0.26v1.364c0,0.06-0.043,0.09-0.117,0.09h-0.226c-0.08,0-0.117-0.03-0.117-0.09v-1.267
				c-0.036,0.015-0.066,0.022-0.087,0.022c-0.073,0.133-0.124,0.2-0.168,0.2c-0.044,0-0.124-0.193-0.255-0.579
				c0.153-0.021,0.321-0.052,0.51-0.089v-4.604c0-0.053,0.029-0.082,0.087-0.082l0.255,0.119c0.059-0.016,0.117-0.03,0.175-0.053
				c0.117-0.029,0.233-0.074,0.336-0.133c0.073-0.037,0.146-0.082,0.211-0.142h0.022c0.022,0,0.044,0.023,0.073,0.067
				c0.19,0.252,0.292,0.386,0.292,0.4c0,0.044-0.022,0.06-0.051,0.06l-0.146-0.03H108.22z M110.254,29.508
				c0.044,0,0.087,0.015,0.124,0.037c0.087,0.103,0.139,0.171,0.139,0.2c-0.102,0.475-0.197,0.83-0.285,1.083
				c-0.102,0.326-0.211,0.593-0.321,0.801c-0.037,0.074-0.073,0.141-0.109,0.2c0.153,0.207,0.313,0.378,0.474,0.497
				c0.189,0.147,0.408,0.274,0.664,0.37c0,0.03-0.022,0.06-0.065,0.089c-0.081,0.082-0.153,0.163-0.219,0.253
				c-0.044,0.044-0.073,0.066-0.088,0.066c-0.35-0.2-0.569-0.349-0.671-0.452c-0.153-0.119-0.284-0.26-0.386-0.431
				c-0.007,0.015-0.015,0.022-0.015,0.022c-0.19,0.223-0.394,0.408-0.62,0.557c-0.146,0.111-0.343,0.215-0.584,0.304
				c-0.066,0-0.109-0.023-0.139-0.066c-0.058-0.082-0.109-0.163-0.168-0.245c-0.029-0.029-0.037-0.052-0.037-0.066
				c0-0.03,0.007-0.052,0.029-0.052c0.146-0.053,0.292-0.111,0.438-0.186c0.27-0.142,0.496-0.319,0.671-0.534
				c0.051-0.06,0.102-0.119,0.146-0.178c-0.051-0.082-0.095-0.163-0.124-0.253c-0.102-0.229-0.189-0.511-0.248-0.838
				c-0.051-0.222-0.08-0.467-0.08-0.741h-0.146c-0.058,0-0.087-0.037-0.087-0.118v-0.23c0-0.06,0.029-0.089,0.087-0.089H110.254z
				 M109.999,26.557c0.073,0,0.117,0.029,0.117,0.089v1.847c0,0.066,0.007,0.111,0.037,0.126c0.029,0.037,0.073,0.052,0.131,0.052
				h0.058c0.059,0,0.095-0.045,0.117-0.141c0.029-0.111,0.051-0.327,0.073-0.646c0-0.029,0.007-0.052,0.036-0.052
				c0.015,0,0.044,0.007,0.088,0.022c0.051,0.029,0.117,0.052,0.197,0.074c0.059,0.015,0.087,0.052,0.087,0.104
				c-0.051,0.371-0.102,0.66-0.153,0.867c-0.044,0.142-0.139,0.208-0.27,0.208h-0.43c-0.146,0-0.255-0.029-0.329-0.097
				c-0.051-0.044-0.073-0.118-0.073-0.223v-1.802h-0.481v0.363c0,0.326-0.022,0.631-0.065,0.898
				c-0.044,0.237-0.124,0.452-0.233,0.631c-0.073,0.126-0.175,0.252-0.299,0.37c-0.051,0-0.095-0.015-0.124-0.044
				c-0.058-0.074-0.117-0.148-0.175-0.216c-0.029-0.029-0.044-0.059-0.044-0.089c0.219-0.223,0.357-0.481,0.43-0.793
				c0.029-0.223,0.051-0.475,0.051-0.757v-0.704c0-0.06,0.037-0.089,0.117-0.089H109.999z M109.284,30.598
				c0.051,0.252,0.124,0.483,0.212,0.697c0.007,0.022,0.015,0.037,0.021,0.045c0.007-0.016,0.015-0.022,0.022-0.037
				c0.109-0.223,0.205-0.475,0.285-0.764c0.051-0.149,0.102-0.349,0.153-0.594h-0.766C109.219,30.191,109.241,30.406,109.284,30.598
				z"/>
			<path fill="#FFFFFF" d="M113.646,26.698c0,0.045-0.015,0.066-0.044,0.066c-0.08,0.015-0.131,0.037-0.153,0.082
				c0.081,0.17,0.153,0.304,0.227,0.393c0.095,0.148,0.262,0.319,0.503,0.512c0.029,0.015,0.044,0.037,0.044,0.052
				c0,0.016-0.022,0.037-0.051,0.06c-0.051,0.06-0.117,0.126-0.197,0.2c-0.029,0.045-0.051,0.06-0.065,0.06
				c-0.022,0-0.051-0.008-0.081-0.037c-0.16-0.149-0.306-0.319-0.423-0.512c-0.059-0.089-0.117-0.192-0.168-0.304
				c-0.175,0.326-0.35,0.586-0.51,0.778c-0.103,0.126-0.248,0.289-0.438,0.482c0.007,0,0.015-0.008,0.022-0.008h1.626
				c0.029,0,0.051,0.029,0.051,0.089v0.23c0,0.081-0.022,0.118-0.051,0.118h-0.518v0.838h0.715c0.036,0,0.058,0.03,0.058,0.089v0.23
				c0,0.081-0.022,0.118-0.058,0.118h-0.715v1.869c0.241-0.052,0.474-0.111,0.7-0.178c0.015-0.008,0.029-0.016,0.043-0.016
				c0.037,0,0.059,0.03,0.059,0.089c0,0.237-0.015,0.364-0.029,0.379c-0.642,0.155-1.284,0.304-1.94,0.438
				c-0.073,0.133-0.124,0.2-0.168,0.2c-0.043,0-0.131-0.193-0.263-0.578c0.307-0.045,0.671-0.111,1.094-0.216
				c0.015,0,0.022-0.007,0.022-0.007v-1.98h-0.854c-0.043,0-0.058-0.037-0.058-0.118v-0.23c0-0.059,0.015-0.089,0.058-0.089h0.854
				V28.96h-0.627c-0.044,0-0.058-0.037-0.058-0.118v-0.23c0-0.029,0-0.044,0.015-0.059c-0.073,0.067-0.139,0.134-0.212,0.208
				c-0.058,0-0.102-0.023-0.138-0.066c-0.073-0.052-0.139-0.111-0.212-0.171c-0.036-0.022-0.051-0.052-0.051-0.082
				c0.16-0.163,0.328-0.333,0.496-0.511c0.219-0.23,0.408-0.49,0.576-0.779c0.131-0.252,0.241-0.497,0.321-0.741
				c0-0.037,0.015-0.06,0.029-0.06C113.456,26.549,113.646,26.669,113.646,26.698z M112.589,31.288
				c0.073,0.171,0.131,0.349,0.175,0.542c0,0.015-0.146,0.066-0.423,0.141c-0.022-0.118-0.065-0.274-0.124-0.452
				c-0.073-0.208-0.161-0.408-0.277-0.615c0-0.03,0.124-0.111,0.372-0.23C112.428,30.895,112.516,31.095,112.589,31.288z
				 M114.128,30.695c0.058,0.029,0.095,0.06,0.095,0.089c0,0.029-0.007,0.052-0.022,0.066c-0.015,0-0.029,0.03-0.029,0.074
				c-0.043,0.349-0.087,0.616-0.131,0.809c-0.015,0.045-0.022,0.066-0.022,0.066c-0.029,0-0.066-0.015-0.102-0.044
				c-0.087-0.029-0.175-0.066-0.248-0.104c-0.029-0.016-0.044-0.022-0.044-0.03v-0.044c0.029-0.171,0.058-0.319,0.073-0.445
				c0.022-0.163,0.037-0.334,0.051-0.504c0-0.045,0.007-0.074,0.015-0.074L114.128,30.695z M115.214,27.224v-0.697
				c0-0.037,0.029-0.059,0.088-0.059c0.335,0,0.51,0.029,0.51,0.089c0,0.059-0.022,0.096-0.051,0.096
				c-0.044,0.008-0.059,0.053-0.059,0.134v0.438h0.707c0.037,0,0.059,0.029,0.059,0.082v0.237c0,0.059-0.022,0.081-0.059,0.081
				h-0.707v0.526h1.065c0.015-0.549,0.044-1.112,0.102-1.683c0-0.074,0.037-0.119,0.117-0.119l0.445,0.045
				c0.044,0.015,0.066,0.029,0.066,0.044c0,0.067-0.022,0.119-0.059,0.148c-0.08,0.037-0.117,0.097-0.117,0.178
				c-0.043,0.482-0.065,0.942-0.08,1.387h1.108c0.037,0,0.059,0.03,0.059,0.082v0.237c0,0.06-0.022,0.081-0.059,0.081h-1.116v0.334
				c0,0.557,0.022,1.038,0.066,1.446c0.029,0.281,0.059,0.534,0.102,0.741c0.073-0.192,0.138-0.393,0.197-0.608
				c0.095-0.312,0.168-0.653,0.226-1.023c0.007-0.045,0.029-0.074,0.073-0.074c0.379,0.133,0.569,0.215,0.569,0.259
				c0,0.053-0.029,0.09-0.087,0.119c-0.058,0-0.095,0.037-0.117,0.104c-0.102,0.475-0.226,0.897-0.365,1.283
				c-0.102,0.252-0.204,0.482-0.306,0.683c0.051,0.141,0.109,0.267,0.182,0.37c0.088,0.171,0.19,0.253,0.292,0.253
				c0.044,0,0.109-0.23,0.197-0.69c0-0.044,0.007-0.066,0.029-0.066c0.022,0,0.044,0.015,0.065,0.045
				c0.066,0.044,0.139,0.104,0.226,0.163c0.051,0.029,0.08,0.066,0.08,0.11c-0.131,0.49-0.248,0.794-0.35,0.913
				c-0.081,0.089-0.161,0.133-0.248,0.133c-0.117,0-0.211-0.037-0.299-0.097c-0.117-0.073-0.219-0.17-0.299-0.296
				c-0.073-0.104-0.131-0.208-0.182-0.319c-0.19,0.268-0.409,0.512-0.642,0.742c-0.029,0.015-0.058,0.029-0.087,0.029
				c-0.059,0-0.102-0.029-0.131-0.089c-0.059-0.074-0.117-0.141-0.182-0.193c-0.044-0.029-0.059-0.059-0.059-0.096
				c0-0.022,0.007-0.037,0.037-0.052c0.117-0.067,0.233-0.164,0.35-0.297c0.182-0.178,0.35-0.386,0.496-0.631
				c-0.095-0.304-0.167-0.682-0.219-1.142c-0.065-0.571-0.095-1.143-0.095-1.721c0-0.111,0-0.223,0.007-0.334h-2.509
				c-0.044,0-0.059-0.021-0.059-0.081v-0.237c0-0.052,0.015-0.082,0.059-0.082h0.962v-0.526h-0.766
				c-0.044,0-0.059-0.022-0.059-0.081v-0.237c0-0.053,0.015-0.082,0.059-0.082H115.214z M116.411,30.495
				c0.037,0,0.059,0.029,0.059,0.089v0.229c0,0.06-0.022,0.09-0.059,0.09h-0.678v0.43h0.627c0.029,0,0.051,0.029,0.051,0.089v0.23
				c0,0.059-0.022,0.089-0.051,0.089h-0.627v0.407c0.226-0.029,0.438-0.059,0.642-0.089h0.037c0.037,0,0.059,0.022,0.059,0.06
				c0,0.208-0.015,0.319-0.029,0.349c-0.562,0.074-1.13,0.141-1.707,0.2c-0.058,0.111-0.109,0.171-0.146,0.171
				c-0.044,0-0.124-0.186-0.255-0.549c0.255-0.016,0.561-0.045,0.912-0.082v-0.467h-0.656c-0.037,0-0.051-0.03-0.051-0.089v-0.23
				c0-0.06,0.015-0.089,0.051-0.089h0.656v-0.43h-0.737c-0.043,0-0.058-0.03-0.058-0.09v-0.229c0-0.06,0.015-0.089,0.058-0.089
				H116.411z M116.33,28.9c0.073,0,0.109,0.03,0.109,0.089v1.098c0,0.06-0.037,0.089-0.109,0.089h-1.626
				c-0.081,0-0.117-0.029-0.117-0.089v-1.098c0-0.059,0.036-0.089,0.117-0.089H116.33z M115.958,29.308h-0.882v0.46h0.882V29.308z
				 M118.088,27.284c0.131,0.134,0.248,0.244,0.35,0.341c0,0.015-0.015,0.03-0.037,0.06c-0.146,0.192-0.219,0.289-0.219,0.289
				c-0.153-0.155-0.306-0.304-0.467-0.438c-0.139-0.103-0.248-0.185-0.335-0.229c0-0.023,0.065-0.119,0.204-0.297
				c0.015-0.029,0.037-0.045,0.051-0.045C117.818,27.084,117.972,27.187,118.088,27.284z"/>
			<path fill="#FFFFFF" d="M122.416,32.416v-4.998h0.452v4.998H122.416z"/>
			<path fill="#FFFFFF" d="M130.735,26.646c0.059,0,0.088,0.037,0.088,0.111v0.229c0,0.082-0.029,0.119-0.088,0.119h-1.531
				c-0.139,0.378-0.285,0.741-0.445,1.097h1.641c0.088,0,0.139,0.045,0.139,0.119v4.242c0,0.178-0.08,0.311-0.226,0.415
				c-0.139,0.074-0.321,0.126-0.54,0.155c-0.059,0-0.088-0.029-0.095-0.089c-0.015-0.104-0.066-0.26-0.168-0.467
				c0-0.022,0.015-0.03,0.044-0.03c0.219,0,0.357-0.021,0.401-0.059c0.044-0.045,0.073-0.111,0.073-0.2v-3.619h-0.569v3.938
				c0,0.06-0.044,0.089-0.117,0.089h-0.284c-0.059,0-0.087-0.029-0.087-0.089v-3.938h-0.482v3.938c0,0.06-0.044,0.089-0.117,0.089
				h-0.285c-0.058,0-0.087-0.029-0.087-0.089v-3.938h-0.54v4.197c0,0.059-0.036,0.089-0.109,0.089h-0.284
				c-0.08,0-0.117-0.029-0.117-0.089v-4.546c0-0.074,0.037-0.119,0.117-0.119h1.108c0.124-0.215,0.226-0.407,0.299-0.57
				c0.065-0.142,0.131-0.319,0.197-0.526h-1.809c-0.059,0-0.088-0.037-0.088-0.119v-0.229c0-0.074,0.029-0.111,0.088-0.111H130.735z
				 M132.391,28.233v-1.387c0-0.141-0.015-0.252-0.029-0.326c-0.021-0.052-0.029-0.097-0.029-0.142c0-0.029,0.043-0.052,0.146-0.052
				l0.569,0.074c0.058,0.03,0.087,0.052,0.087,0.067c0,0.044-0.029,0.066-0.087,0.066c-0.102,0.044-0.146,0.155-0.146,0.341v1.357
				h0.518c0.051,0,0.081,0.044,0.081,0.118v0.23c0,0.081-0.029,0.118-0.081,0.118h-0.518v3.849c0,0.349-0.255,0.527-0.766,0.527
				h-0.488c-0.044,0-0.059-0.045-0.059-0.127c-0.022-0.096-0.065-0.207-0.139-0.341c0-0.044,0.015-0.06,0.059-0.06
				c0.204,0.037,0.393,0.06,0.569,0.06c0.204,0,0.313-0.089,0.313-0.26V28.7h-1.364c-0.059,0-0.087-0.037-0.087-0.118v-0.23
				c0-0.074,0.029-0.118,0.087-0.118H132.391z M131.362,29.479c0.241,0.438,0.46,0.904,0.656,1.394c0,0.074-0.014,0.111-0.043,0.111
				c-0.175,0.119-0.314,0.178-0.409,0.178c-0.211-0.593-0.408-1.082-0.598-1.476c0-0.052,0.103-0.133,0.314-0.237
				C131.326,29.449,131.348,29.464,131.362,29.479z"/>
			<path fill="#FFFFFF" d="M135.272,27.847c0.037,0.015,0.058,0.037,0.058,0.066c0,0.037-0.051,0.089-0.146,0.148
				c-0.073,0.608-0.124,1.054-0.168,1.335c-0.051,0.267-0.109,0.526-0.175,0.778c-0.059,0-0.102-0.015-0.131-0.044
				c-0.073-0.037-0.161-0.066-0.255-0.089c-0.029-0.015-0.036-0.037-0.036-0.067c0.014-0.066,0.036-0.147,0.065-0.244
				c0.059-0.193,0.102-0.408,0.146-0.646c0.029-0.223,0.065-0.489,0.095-0.801c0.015-0.171,0.029-0.349,0.029-0.541
				c0-0.016,0.007-0.03,0.029-0.03L135.272,27.847z M136.672,27.965c0.051,0.037,0.081,0.082,0.081,0.127
				c0,0.044-0.029,0.059-0.088,0.059c-0.043,0-0.065,0.022-0.08,0.052c-0.197,0.401-0.379,0.69-0.547,0.876
				c-0.044,0-0.073-0.016-0.088-0.053c-0.044-0.052-0.073-0.096-0.102-0.126c-0.007,0.148-0.015,0.289-0.022,0.423
				c-0.014,0.319-0.044,0.615-0.073,0.897c0.146,0.312,0.263,0.534,0.365,0.66c0.146,0.229,0.328,0.438,0.547,0.63
				c0,0.059-0.021,0.097-0.051,0.111c-0.073,0.067-0.168,0.156-0.292,0.268c-0.015,0-0.022-0.008-0.036-0.03
				c-0.117-0.104-0.233-0.244-0.343-0.423c-0.088-0.148-0.19-0.326-0.292-0.549c-0.087,0.445-0.197,0.854-0.328,1.209
				c-0.102,0.297-0.263,0.623-0.481,0.979c-0.029,0-0.051-0.023-0.073-0.067c-0.066-0.074-0.139-0.133-0.212-0.186
				c-0.043-0.029-0.058-0.052-0.058-0.066c0.219-0.408,0.372-0.749,0.452-1.016c0.095-0.297,0.175-0.623,0.241-0.979
				c0.058-0.355,0.109-0.823,0.153-1.416c0.021-0.475,0.036-0.972,0.036-1.483v-1.453c0-0.052,0.007-0.082,0.029-0.082
				c0.394,0.045,0.598,0.067,0.598,0.082c0,0.06-0.022,0.089-0.059,0.089c-0.058,0.044-0.08,0.111-0.08,0.2v1.164
				c0,0.231-0.007,0.468-0.015,0.72c0.015-0.022,0.037-0.045,0.051-0.074c0.073-0.104,0.139-0.223,0.211-0.356
				c0.059-0.133,0.109-0.267,0.153-0.415c0.007-0.029,0.015-0.052,0.021-0.052L136.672,27.965z M137.365,31.673
				c0.066,0.03,0.102,0.06,0.102,0.097c0,0.045-0.029,0.074-0.073,0.089c-0.058,0-0.095,0.03-0.109,0.089
				c-0.161,0.46-0.321,0.816-0.474,1.068c-0.044,0.06-0.073,0.089-0.087,0.089c-0.029,0-0.073-0.023-0.117-0.052
				c-0.087-0.045-0.175-0.089-0.255-0.119c-0.044-0.015-0.059-0.029-0.059-0.037c0-0.015,0.007-0.037,0.029-0.059
				c0.153-0.223,0.27-0.416,0.35-0.579c0.109-0.215,0.19-0.43,0.248-0.652c0.015-0.059,0.037-0.097,0.059-0.097L137.365,31.673z
				 M138.065,26.816c0,0.045-0.015,0.067-0.043,0.067c-0.066,0.007-0.109,0.037-0.131,0.081c-0.037,0.134-0.073,0.253-0.102,0.371
				h0.926c0.044,0,0.08,0.015,0.109,0.037c0.08,0.103,0.124,0.171,0.124,0.2c-0.095,0.512-0.183,0.904-0.255,1.179
				c-0.095,0.356-0.189,0.646-0.285,0.868c-0.102,0.229-0.226,0.452-0.372,0.675c-0.175,0.237-0.357,0.438-0.562,0.593
				c-0.131,0.127-0.306,0.237-0.525,0.334c-0.059,0-0.095-0.015-0.109-0.06c-0.051-0.074-0.095-0.147-0.139-0.222
				c-0.029-0.03-0.037-0.053-0.037-0.067c0-0.029,0.007-0.044,0.029-0.06c0.131-0.052,0.255-0.118,0.387-0.207
				c0.233-0.148,0.423-0.334,0.576-0.549c-0.102-0.104-0.197-0.2-0.299-0.289c-0.117-0.104-0.219-0.186-0.292-0.23
				c0-0.021,0.065-0.111,0.197-0.274c0.022-0.029,0.044-0.044,0.059-0.044c0.153,0.118,0.284,0.229,0.386,0.326
				c0.059,0.066,0.109,0.126,0.161,0.178c0.073-0.133,0.146-0.267,0.212-0.415c0.029-0.06,0.051-0.126,0.073-0.192
				c-0.102-0.097-0.205-0.185-0.307-0.274c-0.124-0.09-0.226-0.156-0.299-0.2c0-0.022,0.066-0.111,0.204-0.274
				c0.015-0.03,0.037-0.045,0.051-0.045c0.16,0.104,0.284,0.2,0.386,0.282c0.037,0.037,0.066,0.066,0.095,0.089
				c0.022-0.074,0.044-0.149,0.059-0.223c0.044-0.185,0.095-0.431,0.146-0.726h-0.817c-0.117,0.37-0.226,0.667-0.343,0.89
				c-0.103,0.23-0.277,0.564-0.518,0.993c-0.051,0-0.095-0.021-0.131-0.066c-0.066-0.052-0.131-0.111-0.197-0.171
				c-0.029-0.021-0.044-0.052-0.044-0.081c0.124-0.215,0.255-0.445,0.387-0.689c0.167-0.312,0.313-0.668,0.438-1.054
				c0.109-0.341,0.197-0.682,0.255-1.008c0-0.037,0.015-0.059,0.029-0.059C137.891,26.675,138.065,26.787,138.065,26.816z
				 M138.233,31.741c0.102,0.223,0.226,0.586,0.372,1.075c0,0.044-0.146,0.097-0.431,0.141c-0.051,0-0.073-0.015-0.073-0.044
				c-0.058-0.342-0.146-0.697-0.27-1.083c0-0.045,0.124-0.097,0.372-0.148C138.219,31.681,138.226,31.704,138.233,31.741z
				 M139.59,28.411c0.022-0.334,0.037-0.719,0.037-1.157c0-0.103-0.007-0.304-0.022-0.585c0-0.03,0.022-0.053,0.08-0.053
				l0.525,0.045c0.065,0.015,0.102,0.037,0.102,0.067c0,0.059-0.022,0.104-0.065,0.119c-0.088,0.029-0.131,0.081-0.131,0.17
				c0,0.549-0.015,1.009-0.044,1.394h0.839c0.037,0,0.058,0.029,0.058,0.089v0.23c0,0.074-0.021,0.111-0.058,0.111h-0.81
				c0.051,0.296,0.102,0.526,0.153,0.682c0.058,0.208,0.131,0.4,0.219,0.578c0.044,0.127,0.124,0.274,0.241,0.439
				c0.073,0.103,0.16,0.2,0.262,0.296c0.044,0.03,0.095,0.067,0.161,0.111c0.015,0,0.029,0.015,0.029,0.037
				c0,0.037-0.022,0.066-0.051,0.097c-0.065,0.081-0.124,0.155-0.182,0.223c-0.029,0.044-0.066,0.059-0.109,0.059
				c-0.153-0.118-0.285-0.267-0.401-0.444c-0.102-0.163-0.189-0.312-0.248-0.452c-0.087-0.193-0.167-0.4-0.226-0.631
				c-0.022-0.074-0.043-0.149-0.058-0.237c-0.109,0.386-0.263,0.72-0.452,1.016c-0.183,0.274-0.401,0.527-0.649,0.749h-0.095
				c-0.161-0.044-0.314-0.096-0.452-0.147c-0.029-0.016-0.037-0.037-0.037-0.082c0.321-0.223,0.576-0.46,0.766-0.726
				c0.204-0.26,0.364-0.594,0.467-1.001c0.043-0.149,0.08-0.342,0.109-0.564h-0.657c-0.043,0-0.058-0.037-0.058-0.111V28.5
				c0-0.06,0.015-0.089,0.058-0.089H139.59z M139.342,31.741c0.146,0.223,0.321,0.586,0.518,1.075c0,0.044-0.146,0.097-0.43,0.141
				c-0.073,0-0.103-0.015-0.103-0.044c-0.087-0.342-0.211-0.697-0.379-1.083c0-0.045,0.117-0.097,0.365-0.148
				C139.327,31.681,139.335,31.704,139.342,31.741z M140.429,31.541c0.241,0.363,0.46,0.749,0.656,1.156
				c0,0.067-0.021,0.104-0.051,0.119c-0.161,0.111-0.292,0.17-0.379,0.17c-0.212-0.504-0.408-0.912-0.598-1.245
				c0-0.052,0.102-0.126,0.314-0.23C140.399,31.51,140.414,31.525,140.429,31.541z M140.779,27.447
				c0.102,0.118,0.197,0.229,0.277,0.326c0,0.008-0.015,0.023-0.037,0.052c-0.146,0.2-0.219,0.297-0.219,0.297
				c-0.117-0.149-0.241-0.289-0.372-0.423c-0.102-0.104-0.189-0.171-0.255-0.215c0-0.029,0.066-0.126,0.197-0.304
				c0.014-0.03,0.036-0.045,0.058-0.045C140.567,27.247,140.684,27.35,140.779,27.447z"/>
			<path fill="#FFFFFF" d="M143.704,31.815c0.036,0.044,0.058,0.074,0.058,0.096c0,0.023-0.015,0.037-0.044,0.037
				c-0.059,0.016-0.095,0.03-0.11,0.052c-0.124,0.186-0.255,0.349-0.394,0.497c-0.161,0.171-0.372,0.342-0.62,0.52
				c-0.058,0-0.102-0.022-0.117-0.06c-0.102-0.081-0.189-0.148-0.255-0.208c-0.043-0.015-0.058-0.037-0.058-0.052
				c0-0.015,0.007-0.029,0.029-0.037c0.117-0.052,0.212-0.111,0.291-0.178c0.161-0.126,0.307-0.267,0.438-0.43
				c0.103-0.134,0.219-0.297,0.35-0.497c0.007-0.03,0.022-0.045,0.037-0.045L143.704,31.815z M144.272,26.587
				c0,0.045-0.015,0.066-0.044,0.066c-0.08,0.008-0.131,0.03-0.153,0.074c-0.073,0.134-0.138,0.245-0.197,0.349h4.413
				c0.059,0,0.088,0.045,0.088,0.119v0.229c0,0.082-0.029,0.119-0.088,0.119h-0.598V28.9h0.912c0.058,0,0.087,0.045,0.087,0.119
				v0.229c0,0.082-0.029,0.119-0.087,0.119h-0.912v1.416h0.714c0.051,0,0.081,0.045,0.081,0.119v0.229
				c0,0.082-0.029,0.119-0.081,0.119h-5.871c-0.059,0-0.088-0.037-0.088-0.119v-0.229c0-0.074,0.029-0.119,0.088-0.119h0.744v-1.416
				h-0.999c-0.059,0-0.087-0.037-0.087-0.119v-0.229c0-0.074,0.029-0.119,0.087-0.119h0.999v-1.03
				c-0.146,0.148-0.35,0.341-0.627,0.57c-0.059,0-0.102-0.021-0.139-0.066c-0.073-0.052-0.139-0.111-0.211-0.171
				c-0.037-0.021-0.051-0.052-0.051-0.081c0.168-0.149,0.336-0.297,0.511-0.46c0.219-0.207,0.415-0.438,0.576-0.697
				c0.146-0.222,0.255-0.444,0.336-0.667c0-0.037,0.015-0.06,0.029-0.06C144.082,26.431,144.272,26.549,144.272,26.587z
				 M144.557,27.544h-0.766V28.9h0.766V27.544z M144.557,30.784v-1.416h-0.766v1.416H144.557z M144.871,31.57
				c0.204,0.357,0.401,0.727,0.576,1.127c0,0.067-0.022,0.104-0.051,0.119c-0.175,0.111-0.306,0.17-0.408,0.17
				c-0.183-0.489-0.35-0.89-0.511-1.216c0-0.052,0.102-0.126,0.313-0.23C144.834,31.541,144.856,31.555,144.871,31.57z
				 M145.87,27.544h-0.795V28.9h0.795V27.544z M145.87,30.784v-1.416h-0.795v1.416H145.87z M146.3,31.57
				c0.255,0.363,0.489,0.749,0.708,1.157c0,0.066-0.014,0.104-0.044,0.111c-0.175,0.118-0.314,0.178-0.409,0.178
				c-0.233-0.505-0.452-0.912-0.656-1.246c0-0.052,0.102-0.126,0.314-0.23C146.256,31.541,146.286,31.555,146.3,31.57z
				 M147.183,27.544h-0.802V28.9h0.802V27.544z M147.183,30.784v-1.416h-0.802v1.416H147.183z M148.262,32.059
				c0.204,0.215,0.372,0.4,0.518,0.579c0,0.007-0.015,0.029-0.037,0.059c-0.146,0.208-0.219,0.319-0.226,0.319
				c-0.219-0.274-0.452-0.52-0.693-0.742c-0.204-0.178-0.372-0.311-0.503-0.385c0-0.03,0.073-0.134,0.226-0.327
				c0.022-0.029,0.043-0.052,0.058-0.052C147.868,31.711,148.087,31.896,148.262,32.059z"/>
			<path fill="#FFFFFF" d="M152.908,26.935v-0.497c0-0.06,0.037-0.089,0.117-0.089c0.357,0,0.54,0.029,0.54,0.089
				c0,0.067-0.029,0.104-0.073,0.111c-0.051,0.008-0.073,0.06-0.073,0.149v0.237h2.509c0.036,0,0.058,0.029,0.058,0.081v0.237
				c0,0.074-0.022,0.111-0.058,0.111h-2.509v0.497h2.225c0.037,0,0.059,0.03,0.059,0.082v0.237c0,0.074-0.022,0.111-0.059,0.111
				h-2.225v0.496h2.881c0.037,0,0.059,0.03,0.059,0.082v0.237c0,0.074-0.022,0.111-0.059,0.111h-6.382
				c-0.044,0-0.058-0.037-0.058-0.111v-0.237c0-0.052,0.014-0.082,0.058-0.082h2.99v-0.496h-2.334c-0.044,0-0.058-0.037-0.058-0.111
				v-0.237c0-0.052,0.015-0.082,0.058-0.082h2.334v-0.497h-2.618c-0.044,0-0.059-0.037-0.059-0.111v-0.237
				c0-0.052,0.015-0.081,0.059-0.081H152.908z M155.388,29.568c0.073,0,0.117,0.044,0.117,0.118c0,0.415-0.007,0.772-0.015,1.068
				h0.81c0.037,0,0.059,0.029,0.059,0.089v0.229c0,0.082-0.022,0.119-0.059,0.119h-0.831c-0.007,0.104-0.015,0.2-0.022,0.281
				c-0.015,0.179-0.037,0.334-0.059,0.468h0.744c0.029,0,0.051,0.029,0.051,0.089v0.229c0,0.082-0.022,0.119-0.051,0.119h-0.831
				c-0.015,0.044-0.022,0.089-0.037,0.133c-0.073,0.237-0.167,0.401-0.27,0.483c-0.102,0.089-0.299,0.141-0.576,0.141
				c-0.19,0-0.365-0.015-0.533-0.037c-0.073-0.015-0.102-0.037-0.102-0.066c-0.037-0.134-0.08-0.267-0.131-0.393v-0.09
				c0.307,0.06,0.547,0.09,0.737,0.09c0.131,0,0.219-0.03,0.277-0.09c0.044-0.037,0.073-0.096,0.102-0.17h-1.751
				c-0.058,0.215-0.117,0.415-0.168,0.593c-0.015,0.045-0.037,0.074-0.08,0.074c-0.139-0.015-0.248-0.029-0.329-0.029
				c-0.051-0.008-0.073-0.015-0.073-0.03c0.08-0.222,0.153-0.422,0.212-0.607h-1.517c-0.029,0.104-0.051,0.207-0.08,0.297
				c-0.007,0.052-0.029,0.081-0.065,0.081c-0.161-0.022-0.292-0.037-0.394-0.045c-0.065-0.007-0.095-0.021-0.095-0.044
				c0.073-0.208,0.131-0.4,0.189-0.594c0.073-0.281,0.131-0.578,0.175-0.882h-0.846c-0.044,0-0.058-0.037-0.058-0.119v-0.229
				c0-0.06,0.015-0.089,0.058-0.089h0.904c0.044-0.349,0.051-0.712,0.037-1.098c0-0.059,0.037-0.089,0.109-0.089H155.388z
				 M152.835,31.192h-1.524c-0.015,0.066-0.022,0.126-0.029,0.17c-0.043,0.208-0.08,0.4-0.117,0.579h1.532
				C152.755,31.696,152.799,31.444,152.835,31.192z M152.894,30.755c0.014-0.245,0.021-0.497,0.021-0.749h-1.524
				c-0.007,0.281-0.022,0.526-0.037,0.749H152.894z M154.929,31.51c0.007-0.081,0.015-0.186,0.029-0.318h-1.699
				c-0.022,0.148-0.044,0.274-0.066,0.393c-0.029,0.134-0.051,0.252-0.073,0.356h1.75C154.893,31.807,154.914,31.667,154.929,31.51z
				 M153.302,30.755h1.67c0-0.215,0.007-0.468,0.015-0.749h-1.648C153.331,30.28,153.317,30.532,153.302,30.755z"/>
			<path fill="#FFFFFF" d="M161.274,29.568c0.044,0.029,0.073,0.059,0.073,0.089c0,0.06-0.051,0.089-0.146,0.089h-0.087
				c0.292,0.155,0.554,0.282,0.788,0.371c0.379,0.148,0.744,0.274,1.109,0.363c0.408,0.111,0.817,0.185,1.21,0.215
				c0,0.045-0.022,0.074-0.058,0.089c-0.146,0.126-0.255,0.231-0.321,0.304c-0.014,0.03-0.051,0.045-0.102,0.045
				c-0.634-0.104-1.232-0.274-1.794-0.504v0.215c0,0.059-0.022,0.089-0.059,0.089h-2.283c-0.037,0-0.051-0.029-0.051-0.089v-0.208
				c-0.065,0.03-0.131,0.067-0.204,0.097c-0.285,0.134-0.569,0.252-0.854,0.356c-0.284,0.104-0.51,0.171-0.686,0.216
				c-0.043,0-0.08-0.022-0.109-0.067c-0.058-0.096-0.131-0.185-0.212-0.259c-0.051-0.03-0.073-0.053-0.073-0.074
				c0-0.008,0.014-0.016,0.043-0.03c0.394-0.089,0.729-0.178,0.992-0.275c0.365-0.118,0.729-0.281,1.094-0.475
				c0.241-0.118,0.438-0.237,0.598-0.355c0.175-0.119,0.328-0.26,0.474-0.415c0.044-0.03,0.087-0.045,0.131-0.045L161.274,29.568z
				 M163.426,26.587c0.037,0,0.059,0.029,0.059,0.082v0.237c0,0.074-0.022,0.11-0.059,0.11h-2.363v0.497h2.619
				c0.073,0,0.117,0.03,0.117,0.082v1.535c0,0.059-0.044,0.089-0.117,0.089h-0.285c-0.058,0-0.088-0.03-0.088-0.089v-1.187h-2.246
				v1.245c0,0.059-0.044,0.09-0.117,0.09h-0.284c-0.059,0-0.088-0.03-0.088-0.09v-1.245h-2.334v1.216
				c0,0.059-0.043,0.089-0.116,0.089h-0.285c-0.059,0-0.087-0.029-0.087-0.089v-1.565c0-0.052,0.029-0.082,0.087-0.082h2.735v-0.497
				h-2.334c-0.043,0-0.058-0.036-0.058-0.11v-0.237c0-0.053,0.015-0.082,0.058-0.082H163.426z M162.77,31.281
				c0.073,0,0.117,0.007,0.131,0.022c0.102,0.081,0.153,0.141,0.153,0.178l-1.32,1.06c0.292,0.074,0.554,0.148,0.78,0.215
				c0,0-0.015,0.022-0.037,0.06c-0.146,0.207-0.219,0.318-0.219,0.318c-0.511-0.163-1.058-0.304-1.634-0.423
				c-0.467-0.104-0.854-0.178-1.16-0.215c0-0.029,0.073-0.133,0.226-0.326c0.015-0.029,0.037-0.052,0.059-0.052
				c0.583,0.104,1.064,0.192,1.444,0.282l0.941-0.72h-3.442c-0.059,0-0.081-0.023-0.081-0.082v-0.237
				c0-0.052,0.022-0.081,0.081-0.081H162.77z M160.203,28.293c0.036,0,0.058,0.029,0.058,0.089v0.229
				c0,0.06-0.022,0.089-0.058,0.089h-1.51c-0.037,0-0.051-0.029-0.051-0.089v-0.229c0-0.059,0.015-0.089,0.051-0.089H160.203z
				 M160.203,29.048c0.036,0,0.058,0.03,0.058,0.082v0.237c0,0.059-0.022,0.081-0.058,0.081h-1.51c-0.037,0-0.051-0.022-0.051-0.081
				v-0.237c0-0.052,0.015-0.082,0.051-0.082H160.203z M161.661,30.524c-0.292-0.118-0.642-0.289-1.05-0.518
				c-0.189,0.133-0.372,0.252-0.547,0.349c-0.095,0.059-0.197,0.111-0.299,0.17H161.661z M162.938,28.293
				c0.037,0,0.059,0.029,0.059,0.089v0.229c0,0.06-0.022,0.089-0.059,0.089h-1.451c-0.044,0-0.059-0.029-0.059-0.089v-0.229
				c0-0.059,0.015-0.089,0.059-0.089H162.938z M162.967,29.048c0.037,0,0.059,0.03,0.059,0.082v0.237
				c0,0.059-0.022,0.081-0.059,0.081h-1.48c-0.044,0-0.059-0.022-0.059-0.081v-0.237c0-0.052,0.015-0.082,0.059-0.082H162.967z"/>
			<path fill="#FFFFFF" d="M171.121,26.616c0.073,0,0.109,0.03,0.109,0.082v4.434c0,0.06-0.037,0.089-0.109,0.089h-0.285
				c-0.08,0-0.117-0.029-0.117-0.089v-0.349h-2.02v2.262c0,0.06-0.044,0.089-0.117,0.089h-0.285c-0.08,0-0.117-0.029-0.117-0.089
				v-2.262h-1.991v0.408c0,0.06-0.044,0.089-0.117,0.089h-0.285c-0.073,0-0.109-0.029-0.109-0.089v-4.465
				c0-0.074,0.037-0.111,0.109-0.111H171.121z M168.182,28.5v-1.424h-1.991V28.5H168.182z M168.182,30.324V28.96h-1.991v1.364
				H168.182z M168.7,28.5h2.02v-1.424h-2.02V28.5z M168.7,30.324h2.02V28.96h-2.02V30.324z"/>
			<path fill="#FFFFFF" d="M175.738,26.587c0.037,0,0.058,0.029,0.058,0.082v0.237c0,0.074-0.021,0.11-0.058,0.11h-0.912v0.846
				h0.678c0.073,0,0.117,0.03,0.117,0.082v2.099c0.182-0.089,0.335-0.171,0.452-0.26c0.204-0.126,0.415-0.304,0.635-0.534
				c0.102-0.111,0.241-0.281,0.415-0.518h-0.788c-0.059,0-0.087-0.037-0.087-0.119v-0.229c0-0.059,0.029-0.089,0.087-0.089h1.736
				c0.037,0,0.058,0.021,0.058,0.059c0,0.349,0.146,0.675,0.453,0.979c0.27,0.274,0.605,0.519,0.999,0.727
				c0,0.052-0.022,0.089-0.051,0.103c-0.16,0.149-0.27,0.215-0.321,0.215c-0.124-0.073-0.241-0.148-0.343-0.222v0.17
				c0,0.074-0.022,0.111-0.051,0.111h-1.087v0.786h1.087c0.029,0,0.051,0.03,0.051,0.082v0.237c0,0.074-0.022,0.111-0.051,0.111
				h-1.087v0.845h1.568c0.037,0,0.059,0.022,0.059,0.082v0.237c0,0.074-0.022,0.111-0.059,0.111h-3.333
				c-0.044,0-0.058-0.037-0.058-0.111v-0.237c0-0.06,0.014-0.082,0.058-0.082h1.284v-0.845h-0.999c-0.044,0-0.059-0.037-0.059-0.111
				v-0.237c0-0.052,0.015-0.082,0.059-0.082h0.999v-0.786h-0.999c-0.044,0-0.059-0.037-0.059-0.111v-0.066
				c-0.102,0.066-0.197,0.126-0.284,0.178c-0.051,0-0.088-0.015-0.11-0.044c-0.066-0.06-0.124-0.119-0.175-0.171v2.766
				c0,0.06-0.044,0.09-0.117,0.09h-0.285c-0.058,0-0.08-0.03-0.08-0.09v-0.289h-1.823v0.289c0,0.06-0.044,0.09-0.117,0.09h-0.285
				c-0.058,0-0.087-0.03-0.087-0.09v-5.042c0-0.052,0.029-0.082,0.087-0.082h0.788c0-0.223,0.007-0.504,0.007-0.846h-0.824
				c-0.043,0-0.058-0.036-0.058-0.11v-0.237c0-0.053,0.015-0.082,0.058-0.082H175.738z M175.14,31.073v-0.615
				c-0.496-0.037-0.744-0.23-0.744-0.571v-1.594h-0.284c-0.022,0.222-0.044,0.43-0.073,0.607c-0.044,0.274-0.103,0.526-0.175,0.757
				c-0.087,0.237-0.182,0.43-0.299,0.578c-0.081,0.089-0.161,0.171-0.248,0.245v0.593H175.14z M173.346,29.812
				c0.066-0.104,0.124-0.244,0.175-0.438c0.044-0.133,0.073-0.312,0.102-0.519c0.022-0.163,0.044-0.356,0.059-0.563h-0.365v1.557
				C173.324,29.835,173.331,29.828,173.346,29.812z M175.14,32.259V31.51h-1.823v0.749H175.14z M174.396,27.016h-0.255
				c0,0.327-0.007,0.608-0.007,0.846h0.262V27.016z M174.827,29.768c0,0.148,0.102,0.23,0.314,0.252v-1.728h-0.314V29.768z
				 M176.446,26.987v-0.549c0-0.06,0.037-0.089,0.117-0.089c0.357,0,0.539,0.029,0.539,0.089c0,0.067-0.029,0.104-0.073,0.111
				c-0.044,0.008-0.066,0.06-0.066,0.149v0.289h1.167v-0.489c0-0.06,0.037-0.089,0.11-0.089c0.364,0,0.547,0.029,0.547,0.089
				c0,0.066-0.029,0.103-0.073,0.111c-0.051,0.007-0.073,0.06-0.073,0.148v0.229h0.656c0.059,0,0.088,0.045,0.088,0.119v0.229
				c0,0.082-0.029,0.119-0.088,0.119h-0.656v0.548c0,0.06-0.037,0.09-0.109,0.09h-0.292c-0.073,0-0.11-0.03-0.11-0.09v-0.548h-1.167
				v0.518c0,0.06-0.044,0.089-0.117,0.089h-0.284c-0.08,0-0.117-0.029-0.117-0.089v-0.518h-0.628c-0.058,0-0.08-0.037-0.08-0.119
				v-0.229c0-0.074,0.022-0.119,0.08-0.119H176.446z M178.663,30.006c-0.248-0.178-0.445-0.363-0.606-0.557
				c-0.161-0.2-0.27-0.438-0.343-0.719h-0.065c-0.197,0.289-0.365,0.518-0.503,0.682c-0.175,0.2-0.357,0.386-0.554,0.557
				c-0.015,0.015-0.037,0.029-0.051,0.037H178.663z"/>
			<path fill="#FFFFFF" d="M181.376,28.411v-1.653c0-0.059,0.037-0.089,0.117-0.089c0.357,0,0.54,0.029,0.54,0.089
				c0,0.066-0.029,0.104-0.073,0.111c-0.043,0.007-0.065,0.059-0.065,0.147v1.394h0.854c0.058,0,0.087,0.037,0.087,0.111v0.237
				c0,0.074-0.029,0.111-0.087,0.111h-0.854v2.462c0.328-0.111,0.649-0.23,0.956-0.355c0.007-0.008,0.022-0.016,0.036-0.016
				c0.037,0,0.059,0.03,0.059,0.082c0,0.267-0.015,0.415-0.029,0.438c-0.656,0.26-1.32,0.489-1.991,0.697
				c-0.087,0.133-0.153,0.2-0.197,0.2c-0.051,0-0.146-0.208-0.292-0.638c0.27-0.052,0.583-0.134,0.941-0.245v-2.625h-0.795
				c-0.058,0-0.087-0.037-0.087-0.111v-0.237c0-0.074,0.029-0.111,0.087-0.111H181.376z M186.701,27.981l0.095,0.096
				c0.015,0.03,0.022,0.082,0.022,0.156c-0.044,0.875-0.088,1.52-0.139,1.928c-0.059,0.394-0.131,0.631-0.226,0.72
				c-0.066,0.074-0.168,0.104-0.314,0.104h-0.284c-0.146,0-0.219-0.029-0.219-0.104c-0.029-0.119-0.059-0.237-0.095-0.357
				c0-0.037,0.007-0.059,0.029-0.059c0.117,0.021,0.248,0.029,0.394,0.029h0.175c0.044,0,0.073-0.134,0.102-0.415
				c0.036-0.394,0.058-0.883,0.065-1.476l-1.021,0.326v2.402c0,0.06-0.044,0.089-0.117,0.089h-0.285
				c-0.08,0-0.117-0.029-0.117-0.089v-2.239l-0.795,0.252v2.685c0,0.215,0.131,0.318,0.401,0.318h1.451
				c0.292,0,0.474-0.037,0.533-0.126c0.073-0.066,0.16-0.333,0.262-0.801c0.059,0.104,0.161,0.193,0.299,0.274
				c0.065,0.03,0.102,0.06,0.102,0.104c-0.146,0.527-0.263,0.809-0.336,0.868c-0.081,0.111-0.241,0.171-0.489,0.171h-1.882
				c-0.569,0-0.854-0.179-0.854-0.52v-2.811l-0.576,0.178c-0.043,0-0.073-0.022-0.087-0.074l-0.109-0.304
				c0-0.029,0.007-0.06,0.029-0.074l0.744-0.245v-1.854c0-0.06,0.015-0.089,0.051-0.089l0.489,0.066
				c0.051,0.008,0.08,0.022,0.08,0.052c0,0.053-0.015,0.082-0.044,0.089c-0.044,0.008-0.066,0.037-0.066,0.082v1.483l0.795-0.26
				v-1.973c0-0.059,0.037-0.089,0.117-0.089c0.357,0,0.54,0.029,0.54,0.089c0,0.066-0.029,0.104-0.073,0.104
				c-0.044,0.016-0.066,0.067-0.066,0.156v1.542l1.335-0.444C186.657,27.944,186.686,27.959,186.701,27.981z"/>
			<path fill="#FFFFFF" d="M189.414,27.773v-1.424c0-0.052,0.037-0.081,0.117-0.081c0.357,0,0.54,0.029,0.54,0.081
				c0,0.074-0.029,0.111-0.073,0.111c-0.051,0.015-0.073,0.066-0.073,0.155v1.157h0.89c0.051,0,0.08,0.045,0.08,0.119v0.229
				c0,0.074-0.029,0.111-0.08,0.111h-0.824c0.109,0.297,0.211,0.534,0.314,0.704c0.131,0.252,0.351,0.534,0.657,0.846
				c0.029,0.023,0.051,0.045,0.051,0.074c0,0.015-0.021,0.037-0.051,0.06c-0.059,0.074-0.124,0.155-0.211,0.229
				c-0.037,0.045-0.066,0.06-0.081,0.06c-0.029,0-0.058-0.015-0.095-0.045c-0.219-0.237-0.401-0.512-0.554-0.815
				c-0.037-0.06-0.065-0.126-0.095-0.193v3.834c0,0.06-0.037,0.09-0.109,0.09h-0.285c-0.08,0-0.117-0.03-0.117-0.09v-3.448
				c-0.117,0.305-0.248,0.586-0.379,0.838c-0.153,0.297-0.328,0.579-0.532,0.846c-0.059,0-0.102-0.015-0.124-0.044
				c-0.109-0.045-0.219-0.097-0.321-0.156c-0.044,0-0.066-0.007-0.066-0.037c0.27-0.326,0.489-0.652,0.664-0.979
				c0.16-0.297,0.291-0.594,0.394-0.883c0.073-0.186,0.153-0.482,0.255-0.89h-1.028c-0.059,0-0.087-0.037-0.087-0.111v-0.229
				c0-0.074,0.029-0.119,0.087-0.119H189.414z M191.777,28.351h2.451c0.044,0,0.087,0.016,0.131,0.045
				c0.08,0.074,0.124,0.126,0.124,0.155c-0.059,0.475-0.124,0.868-0.19,1.165c-0.08,0.333-0.182,0.659-0.306,0.971
				c-0.08,0.2-0.189,0.431-0.321,0.69c-0.044,0.074-0.081,0.133-0.117,0.185c0.139,0.2,0.299,0.379,0.488,0.527
				c0.205,0.192,0.467,0.363,0.788,0.512c0.036,0.021,0.058,0.044,0.058,0.066c0,0.029-0.015,0.052-0.036,0.081
				c-0.088,0.074-0.168,0.156-0.255,0.26c-0.037,0.045-0.066,0.067-0.081,0.067c-0.014,0-0.051-0.03-0.102-0.074
				c-0.16-0.089-0.328-0.208-0.518-0.342c-0.219-0.186-0.423-0.386-0.613-0.615c-0.015-0.015-0.022-0.029-0.029-0.045
				c-0.029,0.037-0.051,0.067-0.065,0.082c-0.139,0.171-0.314,0.334-0.533,0.512c-0.167,0.141-0.408,0.304-0.729,0.482
				c-0.044,0-0.088-0.03-0.117-0.074c-0.095-0.074-0.197-0.149-0.299-0.216c-0.029-0.029-0.044-0.052-0.044-0.059
				c0-0.03,0.014-0.045,0.044-0.052c0.335-0.148,0.613-0.305,0.831-0.482c0.233-0.171,0.43-0.371,0.605-0.594
				c0.007-0.007,0.015-0.015,0.022-0.029c-0.073-0.118-0.139-0.237-0.19-0.355c-0.167-0.319-0.284-0.653-0.357-1.002
				c-0.109-0.356-0.204-0.815-0.292-1.394h-0.35v0.46c0,0.778-0.051,1.394-0.146,1.854c-0.065,0.386-0.189,0.764-0.372,1.135
				c-0.102,0.229-0.241,0.452-0.423,0.66c-0.029,0-0.059-0.008-0.073-0.015c-0.081-0.074-0.168-0.142-0.263-0.201
				c-0.022-0.029-0.029-0.059-0.029-0.104c0.161-0.192,0.299-0.452,0.43-0.778c0.131-0.349,0.219-0.712,0.277-1.098
				c0.058-0.393,0.087-0.875,0.087-1.453v-2.433c0-0.074,0.037-0.119,0.117-0.119h3.217c0.058,0,0.087,0.045,0.087,0.119v0.229
				c0,0.082-0.029,0.119-0.087,0.119h-2.823V28.351z M192.755,29.664c0.087,0.386,0.197,0.742,0.328,1.054
				c0.058,0.148,0.124,0.289,0.197,0.407c0.051-0.089,0.095-0.17,0.131-0.244c0.131-0.282,0.241-0.578,0.343-0.89
				c0.073-0.297,0.153-0.683,0.233-1.172h-1.378C192.652,29.145,192.696,29.426,192.755,29.664z"/>
		</g>
	</g>
	<g>
		<g>
			<polygon fill="#595757" points="19.97,32.09 19.97,17.284 32.64,24.686 			"/>
			<polygon fill="#898989" points="19.97,32.09 19.97,17.284 7.299,24.686 			"/>
			<polygon fill="#E7A100" points="32.64,24.686 32.64,9.881 19.97,17.284 			"/>
			<polygon fill="#FABF13" points="19.97,17.35 19.97,2.544 32.64,9.946 			"/>
			<polygon fill="#595757" points="12.67,0.976 12.67,15.782 0,8.38 			"/>
			<polygon fill="#A0C101" points="0,8.38 0,23.184 12.67,15.782 			"/>
			<polygon fill="#C3D82D" points="12.67,15.715 12.67,30.522 0,23.118 			"/>
			<polygon fill="#DAE24A" points="12.67,15.715 12.67,30.522 25.341,23.118 			"/>
			<polygon fill="#FDD23E" points="19.97,17.35 19.97,2.544 7.299,9.946 			"/>
		</g>
	</g>
	<g>
		<path d="M74.227,0.06c0,0-1.436-0.359-0.838,0.678c0.598,1.037,1.196,5.225,0.558,5.822c-0.638,0.598-5.263,3.069-5.023,3.428
			c0.239,0.359,1.954,2.233,2.392,2.193c0.438-0.039,0.838-0.558,0.877,0.001c0.04,0.558-1.076,4.625-1.595,5.303
			c-0.518,0.678-1.453,1.516-1.683,0.358c-0.231-1.156-1.068-0.446-0.988,0.574c0.08,1.021,0.001,3.294,2.712,1.978
			c6.898-3.39,7.296-11.643,7.296-11.643l2.034-1.316c0,0,1.276-0.802,1.036,0.536c-0.239,1.338-2.113,12.143,1.037,12.463
			c3.15,0.318,2.352,1.196,2.352,1.196l-0.478,0.837c0,0,1.316-0.438,1.515-0.638c0.2-0.199,1.516-0.877,1.516-0.877
			s2.432-0.279,2.91-0.279c0.479,0,0.878-0.398,0.837-1.037c-0.039-0.638-1.874-2.313-1.874-2.313s-0.758-0.477-1.754-0.12
			c-0.997,0.359-4.346,0.719-4.346-0.477c0-1.196-0.08-4.625,0.917-6.021c0.997-1.396,2.273-3.15,2.273-3.15s1.316-1.555-0.12-2.671
			c-1.435-1.117-3.07-1.316-4.505-0.957c-1.435,0.358-2.272,0.279-2.272,0.279l-0.04-1.316L74.227,0.06z"/>
		<path d="M51.619,2.891L46.875,0.06c0,0-1.436-0.359-0.837,0.678"/>
		<path d="M47.034,0.06c0,0-1.436-0.359-0.837,0.678c0.598,1.037,1.196,5.225,0.559,5.822c-0.638,0.598-5.263,3.069-5.024,3.428
			c0.239,0.359,1.953,2.233,2.393,2.193c0.438-0.039,0.837-0.558,0.876,0.001c0.04,0.558-1.076,4.625-1.595,5.303
			c-0.518,0.678-1.453,1.516-1.684,0.358c-0.23-1.156-1.068-0.446-0.987,0.574c0.08,1.021,0,3.294,2.712,1.978
			c6.897-3.39,7.296-11.643,7.296-11.643l2.034-1.316c0,0,1.276-0.802,1.037,0.536c-0.239,1.338-2.113,12.143,1.037,12.463
			c3.149,0.318,2.352,1.196,2.352,1.196l-0.479,0.837c0,0,1.316-0.438,1.516-0.638c0.199-0.199,1.515-0.877,1.515-0.877
			s2.433-0.279,2.911-0.279c0.478,0,0.876-0.398,0.837-1.037c-0.04-0.638-1.874-2.313-1.874-2.313s-0.757-0.477-1.754-0.12
			c-0.997,0.359-4.346,0.719-4.346-0.477c0-1.196-0.08-4.625,0.917-6.021c0.997-1.396,2.272-3.15,2.272-3.15s1.316-1.555-0.12-2.671
			c-1.435-1.117-3.07-1.316-4.505-0.957c-1.436,0.358-2.273,0.279-2.273,0.279l-0.04-1.316L47.034,0.06z"/>
		<path d="M103.943,1.305c0,0-0.799-0.205-1.308,0.669c-0.12,0.878-4.406,7.336-4.406,7.336s-1.355,3.669,1.675,2.354
			c3.03-1.316,3.597-2.82,3.597-2.82s0.51-1.531,1.108-0.871c0.598,0.66,1.315,1.338,0.917,1.817
			c-0.398,0.477-7.855,9.529-7.855,9.529s-1.514,1.355,0.439,1.515c1.953,0.159,2.83-0.119,4.266-1.555
			c1.436-1.435,2.193-3.628,2.512-3.469c0.319,0.159,3.795,5.225,5.104,5.701c1.121,0.409,3.468,1.036,5.263,0
			c1.795-1.037,0.797-2.152,0-2.432c-0.797-0.279-6.06-3.549-6.978-4.426c-0.917-0.877-1.754-1.954-1.037-2.791
			c0.718-0.838,2.194-3.549,2.194-3.549s0.398-1.396-0.399-2.153c-0.797-0.758-2.349-0.398-2.349-0.398s0.116-0.599,0.436-1.276
			c0.319-0.678,0.206-1.315-0.436-1.794C106.044,2.214,103.943,1.305,103.943,1.305z"/>
	</g>
</g>
</svg>
